<svg width="40" height="40" viewBox="0 0 40 40" fill="none" xmlns="http://www.w3.org/2000/svg">
<path d="M10.0026 38.3337C7.88246 29.7586 4.6645 12.5976 8.34275 11.0368C8.5099 10.9661 8.69209 10.9199 8.86095 10.852L22.8424 5.21511M26.4818 7.05299L27.4009 11.1634M9.74933 12.6486C8.1685 15.5249 10.6252 27.652 12.6084 35.6239C13.0398 37.3617 14.9978 38.2727 16.6989 37.5583L29.8407 32.0378C31.1839 31.4732 31.9178 30.0672 31.5889 28.6945L28.1373 14.3856M12.5351 12.822C13.1763 12.068 13.8391 9.40596 12.3504 8.04499C12.0939 7.8078 11.7707 7.61065 11.3709 7.46968C8.6713 6.51597 6.9492 9.7561 8.5729 10.8711M12.3086 7.92649C12.5387 6.46546 14.5015 4.93955 16.8677 6.20652C19.4103 7.94296 18.1329 10.4965 16.9736 11.3873M16.975 6.081C17.4573 4.92923 19.2762 2.70827 21.6759 3.62122C24.8987 5.31995 23.0434 8.66647 21.6946 9.0948M21.6486 3.46222C22.3813 2.18291 24.2095 0.946404 25.9949 2.16942C27.7804 3.39271 27.214 6.63432 25.3996 7.67203M13.1951 18.7175C15.9113 17.9538 21.8541 15.9683 23.8961 14.1355M14.4111 22.712C16.9461 22.3309 22.8936 20.0257 25.2336 19.1874M15.1408 27.059C18.0018 26.6389 24.0989 25.2755 25.5985 23.1819M16.4784 31.5234C17.9101 31.3374 24.6439 29.1212 26.4818 27.7075" stroke="#3C805E" stroke-linecap="round"/>
</svg>
